<svg id="Capa_1" data-name="Capa 1" xmlns="http://www.w3.org/2000/svg" viewBox="0 0 30.82 27.58"><title>negro</title><path d="M9.93,18.06H26.31a.9.9,0,0,0,.86-.66L30.79,4.76A.93.93,0,0,0,30.64,4a.9.9,0,0,0-.72-.36H7.85L7.2.71A.9.9,0,0,0,6.32,0H.9a.91.91,0,0,0,0,1.81H5.6c.11.51,3.09,13.9,3.26,14.67a2.7,2.7,0,0,0,1.07,5.19H26.31a.91.91,0,0,0,0-1.81H9.93a.9.9,0,1,1,0-1.8M28.72,5.42,25.63,16.25h-15L8.25,5.42Z"/><path d="M8.81,24.7a2.89,2.89,0,1,0,2.88-2.89A2.88,2.88,0,0,0,8.81,24.7m2.88-1a1,1,0,1,1,0,1.93,1,1,0,0,1,0-1.93"/><path d="M22.41,24.7a2.89,2.89,0,1,0,2.88-2.89,2.88,2.88,0,0,0-2.88,2.89m2.88-1a1,1,0,1,1,0,1.93,1,1,0,0,1,0-1.93"/></svg>