<svg id="Capa_1" data-name="Capa 1" xmlns="http://www.w3.org/2000/svg" viewBox="0 0 16.5 29.07"><defs><style>.cls-1{fill:#959595;}</style></defs><title>negro</title><path class="cls-1" d="M10.19,29.07H5.54a1.41,1.41,0,0,1-1.41-1.41V17.16H1.41A1.41,1.41,0,0,1,0,15.75v-4.5A1.41,1.41,0,0,1,1.41,9.84H4.13V7.59a7.69,7.69,0,0,1,2-5.5A7.32,7.32,0,0,1,11.54,0h3.55A1.41,1.41,0,0,1,16.5,1.42V5.59A1.41,1.41,0,0,1,15.09,7H12.7c-.73,0-.91.14-1,.19s-.14.28-.14.86V9.84h3.31a1.41,1.41,0,0,1,1.42,1.41v4.5a1.41,1.41,0,0,1-1.41,1.41H11.6v10.5a1.41,1.41,0,0,1-1.41,1.41m-4.36-1.7H9.9v-11a.94.94,0,0,1,.94-.94h3.79V11.54H10.84a.94.94,0,0,1-.94-.94V8.06a2.91,2.91,0,0,1,.57-2A2.88,2.88,0,0,1,12.7,5.3h2.1V1.71H11.54C8,1.7,5.83,4,5.83,7.59v3a.94.94,0,0,1-.94.94H1.7v3.92H4.89a.94.94,0,0,1,.94.94Z"/></svg>