<svg id="Capa_1" data-name="Capa 1" xmlns="http://www.w3.org/2000/svg" viewBox="0 0 57 57"><defs><style>.cls-1{fill:#8a8a8a;}</style></defs><title>iconos</title><path class="cls-1" d="M57,46.91a4.36,4.36,0,0,0-2.17-3.24L40.73,35.58a4.4,4.4,0,0,0-5.31.7l-2.77,2.77a2,2,0,0,1-2.72.15,79.33,79.33,0,0,1-6.39-5.75,77.7,77.7,0,0,1-5.74-6.39A2,2,0,0,1,18,24.35l2.77-2.77a4.42,4.42,0,0,0,.7-5.31L13.33,2.21a4.42,4.42,0,0,0-6.94-.92L2.22,5.46c-2.91,2.92-3,8.25-.13,15C4.81,27,9.88,34.13,16.38,40.62S30,52.19,36.53,54.91A23.56,23.56,0,0,0,45.36,57a8.39,8.39,0,0,0,6.17-2.22l4.18-4.17A4.41,4.41,0,0,0,57,46.91M39.81,37.18l14.06,8.09a2.57,2.57,0,0,1,1.26,1.89A2.54,2.54,0,0,1,54.65,49L36,38.35l.76-.76a2.56,2.56,0,0,1,3.09-.41M9.84,1.87a2.5,2.5,0,0,1,1.88,1.26l8.1,14.06a2.56,2.56,0,0,1-.41,3.09l-.69.69L8,2.35a2.49,2.49,0,0,1,1.51-.5,1.94,1.94,0,0,1,.34,0m40.39,51.6c-2.32,2.32-7,2.22-13-.26C31,50.58,24,45.65,17.68,39.32S6.42,26,3.79,19.76c-2.48-5.94-2.58-10.68-.27-13l3.1-3.1L17.36,22.33l-.72.72a3.88,3.88,0,0,0-.28,5.17,81.46,81.46,0,0,0,5.88,6.54,81.46,81.46,0,0,0,6.54,5.88A3.88,3.88,0,0,0,34,40.36l.66-.66L53.32,50.38Z"/></svg>