<svg id="Capa_1" data-name="Capa 1" xmlns="http://www.w3.org/2000/svg" viewBox="0 0 85.29 55.97"><defs><style>.cls-1{fill:#8a8a8a;}</style></defs><title>iconos</title><path class="cls-1" d="M83.79,48.58H78a1.22,1.22,0,1,1,0-2.43h4.6V23.94l-9.95-13H58.29V46.15h4.6a1.22,1.22,0,0,1,0,2.43H57.07a1.21,1.21,0,0,1-1.21-1.21V9.73a1.22,1.22,0,0,1,1.21-1.22H73.22a1.19,1.19,0,0,1,1,.48l10.57,13.8a1.27,1.27,0,0,1,.25.74V47.37a1.21,1.21,0,0,1-1.21,1.21"/><path class="cls-1" d="M57.07,48.58H27.22a1.22,1.22,0,0,1,0-2.43H55.86V2.43H2.43V46.15h9.71a1.22,1.22,0,1,1,0,2.43H1.21A1.21,1.21,0,0,1,0,47.37V1.21A1.21,1.21,0,0,1,1.21,0H57.07a1.22,1.22,0,0,1,1.22,1.21V47.37a1.22,1.22,0,0,1-1.22,1.21"/><path class="cls-1" d="M57.07,35.23H1.21a1.22,1.22,0,0,1,0-2.43H57.07a1.22,1.22,0,1,1,0,2.43"/><path class="cls-1" d="M19.68,56.12a8.75,8.75,0,1,1,8.75-8.75,8.75,8.75,0,0,1-8.75,8.75m0-15.08A6.33,6.33,0,1,0,26,47.37,6.33,6.33,0,0,0,19.68,41Z"/><path class="cls-1" d="M70.43,56.12a8.75,8.75,0,1,1,8.75-8.75,8.75,8.75,0,0,1-8.75,8.75m0-15.08a6.33,6.33,0,1,0,6.32,6.33A6.33,6.33,0,0,0,70.43,41Z"/><path class="cls-1" d="M76.71,31.58H63.14a1.21,1.21,0,0,1-1.21-1.21V16.81a1.21,1.21,0,0,1,1.21-1.22h8.39a1.23,1.23,0,0,1,1,.48l5.17,6.78a1.22,1.22,0,0,1,.25.74v6.78a1.21,1.21,0,0,1-1.21,1.21M64.36,29.15H75.49V24l-4.56-6H64.36Z"/></svg>