<svg id="Capa_1" data-name="Capa 1" xmlns="http://www.w3.org/2000/svg" viewBox="0 0 47.05 58"><defs><style>.cls-1{fill:#8a8a8a;}</style></defs><title>iconos</title><path class="cls-1" d="M44.7,6,25.85.34a8,8,0,0,0-4.49,0L2.46,5.79A3.3,3.3,0,0,0,.08,8.94L0,24.58A35.68,35.68,0,0,0,22.08,57.75a3.36,3.36,0,0,0,1.25.25,3.43,3.43,0,0,0,1.25-.24A35.68,35.68,0,0,0,40.65,44.92,35.44,35.44,0,0,0,47,24.81l.08-15.64A3.32,3.32,0,0,0,44.7,6m-.37,18.8a32.84,32.84,0,0,1-5.85,18.63A33,33,0,0,1,23.59,55.31a.72.72,0,0,1-.5,0A33.08,33.08,0,0,1,2.64,24.59L2.72,9a.65.65,0,0,1,.47-.63L22.1,2.85a5.31,5.31,0,0,1,3,0L43.94,8.52a.68.68,0,0,1,.47.64Z"/><path class="cls-1" d="M38.18,11.8l-14-4.22a1.94,1.94,0,0,0-1.12,0L8.92,11.66a2,2,0,0,0-1.43,1.89l0,11.06a28.06,28.06,0,0,0,5,16.24,28.51,28.51,0,0,0,10,8.87,2.08,2.08,0,0,0,.91.23,2,2,0,0,0,.92-.23A28.46,28.46,0,0,0,34.35,41a28.16,28.16,0,0,0,5.19-16.19l.05-11.06a2,2,0,0,0-1.41-1.91m-1.28,13a25.47,25.47,0,0,1-4.71,14.67,25.83,25.83,0,0,1-8.81,7.79,25.78,25.78,0,0,1-8.74-7.88,25.35,25.35,0,0,1-4.56-14.71l.05-10.57,13.43-3.89,13.39,4Z"/></svg>