<svg id="Capa_1" data-name="Capa 1" xmlns="http://www.w3.org/2000/svg" viewBox="0 0 28 28"><defs><style>.cls-1{fill:#959595;}</style></defs><title>negro</title><path class="cls-1" d="M20.42,0H7.58A7.59,7.59,0,0,0,0,7.58V20.42A7.59,7.59,0,0,0,7.58,28H20.42A7.59,7.59,0,0,0,28,20.42V7.58A7.59,7.59,0,0,0,20.42,0m5.94,20.42a6,6,0,0,1-5.94,5.94H7.58a5.94,5.94,0,0,1-5.94-5.94V7.58A6,6,0,0,1,7.58,1.64H20.42a6,6,0,0,1,5.94,5.94Z"/><path class="cls-1" d="M14,6.34A7.66,7.66,0,1,0,21.66,14,7.67,7.67,0,0,0,14,6.34M14,20a6,6,0,1,1,6-6,6,6,0,0,1-6,6"/><path class="cls-1" d="M21.84,3.62A2.27,2.27,0,1,0,24.1,5.89a2.27,2.27,0,0,0-2.26-2.27m0,2.89a.62.62,0,0,1-.62-.62.62.62,0,0,1,1.24,0,.62.62,0,0,1-.62.62"/></svg>