<svg id="Capa_1" data-name="Capa 1" xmlns="http://www.w3.org/2000/svg" viewBox="0 0 32.95 29.32"><title>negro</title><path d="M16.48,29.32a2,2,0,0,1-1.28-.48c-1.33-1.16-2.61-2.26-3.74-3.22h0a69.08,69.08,0,0,1-8.18-7.68A12.26,12.26,0,0,1,0,9.9a10.29,10.29,0,0,1,2.62-7A8.84,8.84,0,0,1,9.21,0a8.24,8.24,0,0,1,5.17,1.79A10.63,10.63,0,0,1,16.48,4a10.86,10.86,0,0,1,2.09-2.18A8.27,8.27,0,0,1,23.75,0a8.87,8.87,0,0,1,6.59,2.87A10.28,10.28,0,0,1,33,9.9a12.21,12.21,0,0,1-3.27,8,69.08,69.08,0,0,1-8.18,7.68c-1.13,1-2.42,2.06-3.75,3.23a1.91,1.91,0,0,1-1.27.48M9.21,1.93A7,7,0,0,0,4,4.18,8.39,8.39,0,0,0,1.93,9.9c0,2.35.87,4.44,2.83,6.8a67.67,67.67,0,0,0,7.94,7.44h0c1.14,1,2.42,2.06,3.76,3.24,1.35-1.18,2.64-2.28,3.78-3.25a68.68,68.68,0,0,0,8-7.44C30.15,14.34,31,12.25,31,9.9a8.34,8.34,0,0,0-2.1-5.72,7,7,0,0,0-5.17-2.25,6.45,6.45,0,0,0-4,1.38,9.57,9.57,0,0,0-2.23,2.58,1.21,1.21,0,0,1-2.09,0A9.4,9.4,0,0,0,13.2,3.31a6.42,6.42,0,0,0-4-1.38"/></svg>