<svg id="Capa_1" data-name="Capa 1" xmlns="http://www.w3.org/2000/svg" viewBox="0 0 35 28.9"><defs><style>.cls-1{fill:#959595;}</style></defs><title>negro</title><path class="cls-1" d="M13.32,28.9c-5.84,0-10.46-1-12.67-2.8l0,0,0,0A1.77,1.77,0,0,1,.1,24.13l0-.05a1.81,1.81,0,0,1,1.67-1.15,15.14,15.14,0,0,0,4-.55,7.53,7.53,0,0,1-4-4.61,1.63,1.63,0,0,1,.57-1.91,1.89,1.89,0,0,1,.49-.25,11.08,11.08,0,0,1-2.26-4v-.1A1.68,1.68,0,0,1,2.16,9.41a8.4,8.4,0,0,1-.64-2A8.25,8.25,0,0,1,2.39,2l.22-.44a1.21,1.21,0,0,1,1.94-.31l.39.4A18.76,18.76,0,0,0,15.71,7.5,8.49,8.49,0,0,1,18,2.56,8.11,8.11,0,0,1,23.82,0h0a11.68,11.68,0,0,1,4.79,1.56c1-.34,2.28-.86,3.57-1.41A1.64,1.64,0,0,1,34,.47a1.6,1.6,0,0,1,.34,1.76c-.09.26-.2.51-.31.76a1.9,1.9,0,0,1,.47.33A1.76,1.76,0,0,1,35,5l0,0a6.72,6.72,0,0,1-2.7,3.71C32,19.89,23.62,28.9,13.32,28.9M2.62,25c2.08,1.18,6.05,1.89,10.7,1.89a16,16,0,0,0,11.88-5.4,19.36,19.36,0,0,0,5-13.14V8.24a1.2,1.2,0,0,1,.64-1.07,4.38,4.38,0,0,0,1.89-2.08,1.22,1.22,0,0,1-1.16-.48,1.2,1.2,0,0,1,0-1.43A6.89,6.89,0,0,0,32,2.45a32.88,32.88,0,0,1-3.09,1.17,1.32,1.32,0,0,1-1-.11,10.09,10.09,0,0,0-4.07-1.46A6.39,6.39,0,0,0,17.7,8.52a1.21,1.21,0,0,1-.44.94,1.22,1.22,0,0,1-1,.25C10.68,8.61,7.37,7,3.93,3.51a6.14,6.14,0,0,0-.4,3.54A7.53,7.53,0,0,0,5.31,10.5a1.21,1.21,0,0,1-1.22,2A5.65,5.65,0,0,1,3,12,10.24,10.24,0,0,0,6.47,16.1a1.21,1.21,0,0,1-.78,2.2A5.42,5.42,0,0,1,4.08,18a5.57,5.57,0,0,0,4.41,3.12,1.21,1.21,0,0,1,.36,2.26A14.42,14.42,0,0,1,2.62,25"/></svg>